#Comment line ignore any data following # character 
#Hierarchical Translation and Rotation (.htr) file 
[Header]	
#Header keywords are followed by a single value 
FileType HTR		#Single word string
DataType HTRS		#Translation followed by rotation and scale data
FileVersion 1		#integer
NumSegments 84		#integer
NumFrames 2		#integer
DataFrameRate 30		#integer, data frame rate in this file
EulerRotationOrder ZYX
CalibrationUnits mm
RotationUnits Degrees
GlobalAxisofGravity Y
BoneLengthAxis Y
ScaleFactor 1.00
[SegmentNames&Hierarchy]
#CHILD	PARENT
MASTER GLOBAL
root MASTER
chest root
L_mid_tent01 root
R_mid_tent01 root
spine01 root
Bip01_Neck chest
L_humerus chest
R_humerus chest
weapon_bone chest
Bip01_Head Bip01_Neck
eye_left_bone Bip01_Head
eye_right_bone Bip01_Head
L_forearm L_humerus
L_front_hand L_forearm
L_weapon_bone L_forearm
L_front_hand01_01 L_front_hand
L_front_hand02_01 L_front_hand
L_front_hand03_01 L_front_hand
L_front_hand01_02 L_front_hand01_01
L_front_hand02_02 L_front_hand02_01
L_front_hand03_02 L_front_hand03_01
R_forearm R_humerus
R_front_hand R_forearm
R_weapon_bone R_forearm
R_front_hand01_01 R_front_hand
R_front_hand02_01 R_front_hand
R_front_hand03_01 R_front_hand
R_front_hand01_02 R_front_hand01_01
R_front_hand02_02 R_front_hand02_01
R_front_hand03_02 R_front_hand03_01
null_rope01_connect L_mid_tent01
Rope1_Seg01 null_rope01_connect
Rope1_Seg02 Rope1_Seg01
Rope1_Seg03 Rope1_Seg02
Rope1_Seg04 Rope1_Seg03
Rope1_Seg05 Rope1_Seg04
Rope1_Seg06 Rope1_Seg05
Rope1_Seg07 Rope1_Seg06
Rope1_Seg09 Rope1_Seg07
L_mid_hand01 Rope1_Seg09
L_mid_hand02 Rope1_Seg09
L_mid_hand03 Rope1_Seg09
null_rope02_connect R_mid_tent01
Rope2_Seg01 null_rope02_connect
Rope2_Seg02 Rope2_Seg01
Rope2_Seg03 Rope2_Seg02
Rope2_Seg04 Rope2_Seg03
Rope2_Seg05 Rope2_Seg04
Rope2_Seg06 Rope2_Seg05
Rope2_Seg07 Rope2_Seg06
Rope2_Seg09 Rope2_Seg07
R_mid_hand01 Rope2_Seg09
R_mid_hand02 Rope2_Seg09
R_mid_hand03 Rope2_Seg09
spine02 spine01
spine03 spine02
pelvis spine03
null_rope03_connect pelvis
null_rope04_connect pelvis
Rope3_Seg01 null_rope03_connect
Rope3_Seg02 Rope3_Seg01
Rope3_Seg03 Rope3_Seg02
Rope3_Seg04 Rope3_Seg03
Rope3_Seg05 Rope3_Seg04
Rope3_Seg06 Rope3_Seg05
Rope3_Seg07 Rope3_Seg06
Rope3_Seg08 Rope3_Seg07
Rope3_Seg09 Rope3_Seg08
R_rear_hand01 Rope3_Seg09
R_rear_hand02 Rope3_Seg09
R_rear_hand03 Rope3_Seg09
Rope4_Seg01 null_rope04_connect
Rope4_Seg02 Rope4_Seg01
Rope4_Seg03 Rope4_Seg02
Rope4_Seg04 Rope4_Seg03
Rope4_Seg05 Rope4_Seg04
Rope4_Seg06 Rope4_Seg05
Rope4_Seg07 Rope4_Seg06
Rope4_Seg08 Rope4_Seg07
Rope4_Seg09 Rope4_Seg08
L_rear_hand01 Rope4_Seg09
L_rear_hand02 Rope4_Seg09
L_rear_hand03 Rope4_Seg09
[BasePosition]
#SegmentName Tx, Ty, Tz, Rx, Ry, Rz, BoneLength
MASTER 0.000000 0.000000 0.000000 -90.000000 0.000000 0.000000 10.000000 
root 0.000000 0.000000 0.000000 0.000000 0.000000 0.000000 10.000000 
chest 0.000000 0.000000 0.000000 0.000000 0.000000 0.000000 10.000000 
L_mid_tent01 0.000000 0.000000 0.000000 0.000000 0.000000 0.000000 10.000000 
R_mid_tent01 0.000000 0.000000 0.000000 0.000000 0.000000 0.000000 10.000000 
spine01 0.000000 0.000000 0.000000 0.000000 0.000000 0.000000 10.000000 
Bip01_Neck 0.000000 0.000000 0.000000 0.000000 0.000000 0.000000 10.000000 
L_humerus 0.000000 0.000000 0.000000 0.000000 0.000000 0.000000 10.000000 
R_humerus 0.000000 0.000000 0.000000 0.000000 0.000000 0.000000 10.000000 
weapon_bone 0.000000 0.000000 0.000000 0.000000 0.000000 0.000000 10.000000 
Bip01_Head 0.000000 0.000000 0.000000 0.000000 0.000000 0.000000 10.000000 
eye_left_bone 0.000000 0.000000 0.000000 0.000000 0.000000 0.000000 10.000000 
eye_right_bone 0.000000 0.000000 0.000000 0.000000 0.000000 0.000000 10.000000 
L_forearm 0.000000 0.000000 0.000000 0.000000 0.000000 0.000000 10.000000 
L_front_hand 0.000000 0.000000 0.000000 0.000000 0.000000 0.000000 10.000000 
L_weapon_bone 0.000000 0.000000 0.000000 0.000000 0.000000 0.000000 10.000000 
L_front_hand01_01 0.000000 0.000000 0.000000 0.000000 0.000000 0.000000 10.000000 
L_front_hand02_01 0.000000 0.000000 0.000000 0.000000 0.000000 0.000000 10.000000 
L_front_hand03_01 0.000000 0.000000 0.000000 0.000000 0.000000 0.000000 10.000000 
L_front_hand01_02 0.000000 0.000000 0.000000 0.000000 0.000000 0.000000 10.000000 
L_front_hand02_02 0.000000 0.000000 0.000000 0.000000 0.000000 0.000000 10.000000 
L_front_hand03_02 0.000000 0.000000 0.000000 0.000000 0.000000 0.000000 10.000000 
R_forearm 0.000000 0.000000 0.000000 0.000000 0.000000 0.000000 10.000000 
R_front_hand 0.000000 0.000000 0.000000 0.000000 0.000000 0.000000 10.000000 
R_weapon_bone 0.000000 0.000000 0.000000 0.000000 0.000000 0.000000 10.000000 
R_front_hand01_01 0.000000 0.000000 0.000000 0.000000 0.000000 0.000000 10.000000 
R_front_hand02_01 0.000000 0.000000 0.000000 0.000000 0.000000 0.000000 10.000000 
R_front_hand03_01 0.000000 0.000000 0.000000 0.000000 0.000000 0.000000 10.000000 
R_front_hand01_02 0.000000 0.000000 0.000000 0.000000 0.000000 0.000000 10.000000 
R_front_hand02_02 0.000000 0.000000 0.000000 0.000000 0.000000 0.000000 10.000000 
R_front_hand03_02 0.000000 0.000000 0.000000 0.000000 0.000000 0.000000 10.000000 
null_rope01_connect 0.000000 0.000000 0.000000 0.000000 0.000000 0.000000 10.000000 
Rope1_Seg01 0.000000 0.000000 0.000000 0.000000 0.000000 0.000000 10.000000 
Rope1_Seg02 0.000000 0.000000 0.000000 0.000000 0.000000 0.000000 10.000000 
Rope1_Seg03 0.000000 0.000000 0.000000 0.000000 0.000000 0.000000 10.000000 
Rope1_Seg04 0.000000 0.000000 0.000000 0.000000 0.000000 0.000000 10.000000 
Rope1_Seg05 0.000000 0.000000 0.000000 0.000000 0.000000 0.000000 10.000000 
Rope1_Seg06 0.000000 0.000000 0.000000 0.000000 0.000000 0.000000 10.000000 
Rope1_Seg07 0.000000 0.000000 0.000000 0.000000 0.000000 0.000000 10.000000 
Rope1_Seg09 0.000000 0.000000 0.000000 0.000000 0.000000 0.000000 10.000000 
L_mid_hand01 0.000000 0.000000 0.000000 0.000000 0.000000 0.000000 10.000000 
L_mid_hand02 0.000000 0.000000 0.000000 0.000000 0.000000 0.000000 10.000000 
L_mid_hand03 0.000000 0.000000 0.000000 0.000000 0.000000 0.000000 10.000000 
null_rope02_connect 0.000000 0.000000 0.000000 0.000000 0.000000 0.000000 10.000000 
Rope2_Seg01 0.000000 0.000000 0.000000 0.000000 0.000000 0.000000 10.000000 
Rope2_Seg02 0.000000 0.000000 0.000000 0.000000 0.000000 0.000000 10.000000 
Rope2_Seg03 0.000000 0.000000 0.000000 0.000000 0.000000 0.000000 10.000000 
Rope2_Seg04 0.000000 0.000000 0.000000 0.000000 0.000000 0.000000 10.000000 
Rope2_Seg05 0.000000 0.000000 0.000000 0.000000 0.000000 0.000000 10.000000 
Rope2_Seg06 0.000000 0.000000 0.000000 0.000000 0.000000 0.000000 10.000000 
Rope2_Seg07 0.000000 0.000000 0.000000 0.000000 0.000000 0.000000 10.000000 
Rope2_Seg09 0.000000 0.000000 0.000000 0.000000 0.000000 0.000000 10.000000 
R_mid_hand01 0.000000 0.000000 0.000000 0.000000 0.000000 0.000000 10.000000 
R_mid_hand02 0.000000 0.000000 0.000000 0.000000 0.000000 0.000000 10.000000 
R_mid_hand03 0.000000 0.000000 0.000000 0.000000 0.000000 0.000000 10.000000 
spine02 0.000000 0.000000 0.000000 0.000000 0.000000 0.000000 10.000000 
spine03 0.000000 0.000000 0.000000 0.000000 0.000000 0.000000 10.000000 
pelvis 0.000000 0.000000 0.000000 0.000000 0.000000 0.000000 10.000000 
null_rope03_connect 0.000000 0.000000 0.000000 0.000000 0.000000 0.000000 10.000000 
null_rope04_connect 0.000000 0.000000 0.000000 0.000000 0.000000 0.000000 10.000000 
Rope3_Seg01 0.000000 0.000000 0.000000 0.000000 0.000000 0.000000 10.000000 
Rope3_Seg02 0.000000 0.000000 0.000000 0.000000 0.000000 0.000000 10.000000 
Rope3_Seg03 0.000000 0.000000 0.000000 0.000000 0.000000 0.000000 10.000000 
Rope3_Seg04 0.000000 0.000000 0.000000 0.000000 0.000000 0.000000 10.000000 
Rope3_Seg05 0.000000 0.000000 0.000000 0.000000 0.000000 0.000000 10.000000 
Rope3_Seg06 0.000000 0.000000 0.000000 0.000000 0.000000 0.000000 10.000000 
Rope3_Seg07 0.000000 0.000000 0.000000 0.000000 0.000000 0.000000 10.000000 
Rope3_Seg08 0.000000 0.000000 0.000000 0.000000 0.000000 0.000000 10.000000 
Rope3_Seg09 0.000000 0.000000 0.000000 0.000000 0.000000 0.000000 10.000000 
R_rear_hand01 0.000000 0.000000 0.000000 0.000000 0.000000 0.000000 10.000000 
R_rear_hand02 0.000000 0.000000 0.000000 0.000000 0.000000 0.000000 10.000000 
R_rear_hand03 0.000000 0.000000 0.000000 0.000000 0.000000 0.000000 10.000000 
Rope4_Seg01 0.000000 0.000000 0.000000 0.000000 0.000000 0.000000 10.000000 
Rope4_Seg02 0.000000 0.000000 0.000000 0.000000 0.000000 0.000000 10.000000 
Rope4_Seg03 0.000000 0.000000 0.000000 0.000000 0.000000 0.000000 10.000000 
Rope4_Seg04 0.000000 0.000000 0.000000 0.000000 0.000000 0.000000 10.000000 
Rope4_Seg05 0.000000 0.000000 0.000000 0.000000 0.000000 0.000000 10.000000 
Rope4_Seg06 0.000000 0.000000 0.000000 0.000000 0.000000 0.000000 10.000000 
Rope4_Seg07 0.000000 0.000000 0.000000 0.000000 0.000000 0.000000 10.000000 
Rope4_Seg08 0.000000 0.000000 0.000000 0.000000 0.000000 0.000000 10.000000 
Rope4_Seg09 0.000000 0.000000 0.000000 0.000000 0.000000 0.000000 10.000000 
L_rear_hand01 0.000000 0.000000 0.000000 0.000000 0.000000 0.000000 10.000000 
L_rear_hand02 0.000000 0.000000 0.000000 0.000000 0.000000 0.000000 10.000000 
L_rear_hand03 0.000000 0.000000 0.000000 0.000000 0.000000 0.000000 10.000000 
#Beginning of Data. Separated by tabs
#Fr	Tx	Ty	Tz	Rx	Ry	Rz	SF
[MASTER]
24 -1746.103516 -4532.852539 0.000000 0.000535 0.002285 -63.635479 4857.533203
25 -1785.083496 -4744.266113 0.000000 0.000556 0.002280 -62.596539 5068.982422
[root]
24 -62.821960 92.583527 1089.235107 -89.590073 -5.608831 179.514236 1094.966431
25 -62.822201 96.687881 1101.114624 -89.311447 -5.282141 179.520126 1107.135376
[chest]
24 -84.512650 -34.090519 0.000000 7.022879 -0.743848 156.383926 91.129311
25 -84.512650 -34.090519 0.000000 5.601657 -0.746960 156.384079 91.129311
[L_mid_tent01]
24 23.228750 24.509907 -223.761200 -7.015708 14.749712 4.232661 226.294907
25 23.228750 24.509907 -223.761200 -7.532232 10.293148 6.313422 226.294907
[R_mid_tent01]
24 23.228794 24.509907 226.238495 -161.288498 -6.596373 2.639546 228.744751
25 23.228794 24.509907 226.238495 -161.034485 -6.646145 1.391699 228.744751
[spine01]
24 -0.361383 -0.195265 0.000000 0.001815 0.001488 11.320962 0.410763
25 -0.361383 -0.195265 0.000000 0.001815 0.001488 11.320962 0.410763
[Bip01_Neck]
24 165.484543 71.581718 0.000119 175.896118 1.177290 24.871183 180.302734
25 165.484543 71.581718 0.000119 175.896118 1.177290 24.871183 180.302734
[L_humerus]
24 -13.983130 -135.272980 -120.471481 141.886902 67.232819 -121.037880 181.680161
25 -13.983130 -135.272980 -120.471481 133.777542 72.087700 -128.197098 181.680161
[R_humerus]
24 -13.983309 -135.273102 125.287651 -160.480743 -61.004654 -103.244629 184.909012
25 -13.983309 -135.273102 125.287651 -159.123489 -66.730400 -104.052536 184.909012
[weapon_bone]
24 235.964890 -300.705902 0.000000 0.000000 -89.951546 -128.212341 382.234833
25 235.964890 -300.705902 0.000000 0.000000 -89.951546 -128.212341 382.234833
[Bip01_Head]
24 201.313614 211.516739 15.929917 2.946510 3.600848 -65.064026 292.438477
25 201.313599 211.516739 15.929924 2.185478 3.689637 -64.754486 292.438477
[eye_left_bone]
24 -24.626970 125.451866 -64.772606 0.000000 -90.000000 -99.840431 143.318359
25 -24.626970 125.451866 -64.772606 0.000000 -90.000000 -99.840431 143.318359
[eye_right_bone]
24 -24.626970 125.451866 64.327362 0.000000 -89.965736 80.156380 143.117676
25 -24.626970 125.451866 64.327362 0.000000 -89.965736 80.156380 143.117676
[L_forearm]
24 322.776093 0.000000 -0.000119 0.000357 -0.002320 -107.506004 322.776093
25 322.776093 0.000000 -0.000119 0.000357 -0.002320 -107.505997 322.776093
[L_front_hand]
24 241.149185 -0.042021 -3.300071 -179.431961 -2.195943 -5.942918 241.171753
25 241.149185 -0.042021 -3.300071 -179.431961 -2.195943 -5.942919 241.171753
[L_weapon_bone]
24 156.183838 0.000000 0.000000 0.000014 0.000007 0.000001 156.183838
25 156.183838 0.000000 0.000000 0.000014 0.000007 0.000001 156.183838
[L_front_hand01_01]
24 86.095154 20.947098 -0.655860 0.139491 -0.584553 24.181786 88.609184
25 86.095154 20.947098 -0.655860 0.139491 -0.584553 24.181786 88.609184
[L_front_hand02_01]
24 86.935165 -11.437475 24.513514 119.190460 -21.905655 -12.119137 91.046425
25 86.935165 -11.437475 24.513514 119.190460 -21.905655 -12.119137 91.046425
[L_front_hand03_01]
24 86.637497 -14.123976 -20.424902 -120.437630 20.554031 -14.327168 90.126129
25 86.637497 -14.123976 -20.424902 -120.437630 20.554031 -14.327168 90.126129
[L_front_hand01_02]
24 71.020905 -0.000179 0.000030 0.000334 -0.002323 -106.379684 71.020905
25 71.020905 -0.000179 0.000030 0.000334 -0.002323 -106.379684 71.020905
[L_front_hand02_02]
24 71.020927 -0.000119 0.000060 0.000334 -0.002323 -106.379684 71.020927
25 71.020927 -0.000119 0.000060 0.000334 -0.002323 -106.379684 71.020927
[L_front_hand03_02]
24 71.020905 -0.000060 0.000060 0.000334 -0.002323 -106.379684 71.020905
25 71.020905 -0.000060 0.000060 0.000334 -0.002323 -106.379684 71.020905
[R_forearm]
24 322.776428 -0.000060 0.000030 0.196737 0.083011 -114.368637 322.776428
25 322.776428 -0.000060 0.000030 0.196737 0.083011 -114.368637 322.776428
[R_front_hand]
24 238.847015 -0.006795 2.210259 -0.341870 1.692706 -0.151780 238.857239
25 238.847015 -0.006795 2.210259 -0.341870 1.692706 -0.151780 238.857239
[R_weapon_bone]
24 155.664093 0.002503 -0.000030 0.003487 0.001180 -90.988930 155.664078
25 155.664093 0.002503 -0.000030 0.003487 0.001180 -90.988930 155.664078
[R_front_hand01_01]
24 87.624611 14.231146 22.918642 -119.218056 -22.033409 12.303375 91.683487
25 87.624611 14.231146 22.918642 -119.218056 -22.033411 12.303375 91.683487
[R_front_hand02_01]
24 89.356956 14.367283 -19.491137 120.545532 20.947184 14.823009 92.579636
25 89.356956 14.367283 -19.491137 120.545532 20.947184 14.823009 92.579636
[R_front_hand03_01]
24 87.286232 -22.307278 -0.143439 -0.231628 -0.392922 -24.567768 90.091743
25 87.286232 -22.307278 -0.143439 -0.231628 -0.392922 -24.567768 90.091743
[R_front_hand01_02]
24 71.020905 0.000060 0.000119 0.002323 -0.000334 106.381714 71.020905
25 71.020905 0.000060 0.000119 0.002323 -0.000334 106.381714 71.020905
[R_front_hand02_02]
24 71.020844 -0.000030 -0.000119 0.002323 -0.000334 106.381714 71.020836
25 71.020844 -0.000030 -0.000119 0.002323 -0.000334 106.381714 71.020836
[R_front_hand03_02]
24 71.020905 0.000000 0.000030 0.002323 -0.000334 106.381714 71.020905
25 71.020905 0.000000 0.000030 0.002323 -0.000334 106.381714 71.020905
[null_rope01_connect]
24 328.732483 0.000000 -0.000238 -119.887253 77.334724 151.957092 328.732483
25 328.732483 0.000000 -0.000238 -113.092606 71.780998 156.805969 328.732483
[Rope1_Seg01]
24 -0.000029 0.000009 0.000117 18.909544 -37.281910 89.849159 0.000121
25 -0.000031 0.000008 0.000122 42.121544 -68.600685 66.665207 0.000126
[Rope1_Seg02]
24 139.999863 -0.000179 0.000000 3.209470 3.024760 -12.928739 139.999863
25 139.999863 -0.000179 0.000000 -7.292725 25.417061 -29.658331 139.999863
[Rope1_Seg03]
24 139.999924 0.000060 -0.000060 -12.071347 16.698580 15.655385 139.999924
25 139.999924 0.000060 -0.000060 -14.786687 20.451286 18.016403 139.999924
[Rope1_Seg04]
24 139.999924 -0.000060 -0.000119 -9.202157 17.177284 31.811350 139.999924
25 139.999924 -0.000060 -0.000119 -8.641380 17.207598 38.656334 139.999924
[Rope1_Seg05]
24 139.999832 0.000119 -0.000060 -1.676386 3.052734 10.262674 139.999832
25 139.999832 0.000119 -0.000060 -0.901857 2.632326 11.940154 139.999832
[Rope1_Seg06]
24 139.999954 0.000119 -0.000060 -0.500089 1.219017 4.478569 139.999954
25 139.999954 0.000119 -0.000060 -0.078682 1.064144 4.671160 139.999954
[Rope1_Seg07]
24 139.999985 0.000060 0.000000 -0.223664 0.714450 2.740495 139.999985
25 139.999985 0.000060 0.000000 0.036830 0.629055 2.801443 139.999985
[Rope1_Seg09]
24 121.602913 0.000119 -0.000089 -89.793175 -1.359789 0.847147 121.602913
25 121.602913 0.000119 -0.000089 -89.793175 -1.359789 0.847147 121.602913
[L_mid_hand01]
24 103.859421 1.038730 8.195221 106.855484 -31.239275 -9.461397 104.187431
25 103.859421 1.038730 8.195221 106.855484 -31.239275 -9.461397 104.187431
[L_mid_hand02]
24 105.572853 -4.139662 -10.864139 -142.331345 25.752670 -28.774628 106.211075
25 105.572853 -4.139662 -10.864139 -142.331345 25.752670 -28.774628 106.211075
[L_mid_hand03]
24 104.641464 17.579376 -3.913581 -16.122810 9.734291 34.223598 106.179977
25 104.641464 17.579376 -3.913581 -16.122810 9.734291 34.223598 106.179977
[null_rope02_connect]
24 328.732849 0.000179 -0.000119 121.579475 -52.137020 150.949539 328.732849
25 328.732849 0.000179 -0.000119 121.211914 -50.722240 150.691757 328.732849
[Rope2_Seg01]
24 -0.000141 -0.000036 -0.000153 -50.088634 -60.210316 -139.788177 0.000211
25 -0.000143 -0.000031 -0.000153 -51.577820 -52.808613 -135.902954 0.000211
[Rope2_Seg02]
24 139.999741 -0.000060 -0.000119 -2.390243 16.885792 -14.577278 139.999756
25 139.999741 -0.000060 -0.000119 -1.758313 12.120384 -11.919403 139.999756
[Rope2_Seg03]
24 140.000107 0.000030 0.000000 1.188548 39.045174 -43.015545 140.000107
25 140.000107 0.000030 0.000000 2.331574 37.651379 -53.470524 140.000107
[Rope2_Seg04]
24 139.999802 0.000000 -0.000060 81.996407 17.989588 -30.548384 139.999802
25 139.999802 0.000000 -0.000060 76.114235 14.493237 -38.645321 139.999802
[Rope2_Seg05]
24 139.999985 -0.000060 0.000119 -33.923477 9.243953 5.133192 139.999985
25 139.999985 -0.000060 0.000119 -48.611801 20.324648 4.715605 139.999985
[Rope2_Seg06]
24 139.999893 -0.000030 -0.000119 -51.550236 8.099061 18.178112 139.999893
25 139.999893 -0.000030 -0.000119 -49.294533 8.104932 17.715601 139.999893
[Rope2_Seg07]
24 139.999893 0.000060 -0.000060 -7.843191 -3.168327 6.117976 139.999893
25 139.999893 0.000060 -0.000060 -6.412786 -1.710761 4.383709 139.999893
[Rope2_Seg09]
24 121.338966 0.000089 -0.000060 33.793236 -1.359788 -0.847141 121.338966
25 121.338966 0.000089 -0.000060 33.793236 -1.359788 -0.847141 121.338966
[R_mid_hand01]
24 104.680779 11.144459 -10.335981 -41.523792 25.424656 28.595957 105.778534
25 104.680779 11.144459 -10.335981 -41.523792 25.424656 28.595957 105.778534
[R_mid_hand02]
24 104.070427 2.443552 8.231699 72.847389 -32.746803 10.013901 104.424065
25 104.070427 2.443552 8.231699 72.847389 -32.746803 10.013901 104.424065
[R_mid_hand03]
24 106.028137 -11.221827 -5.996406 -167.901306 10.259192 -37.009720 106.788818
25 106.028137 -11.221827 -5.996406 -167.901306 10.259192 -37.009720 106.788818
[spine02]
24 129.756927 0.001550 0.000119 0.001147 -1.797837 -7.854275 129.756927
25 129.756927 0.001550 0.000119 0.001147 -1.797837 -7.854274 129.756927
[spine03]
24 79.115631 0.000000 -0.000119 1.459971 -2.848092 23.765963 79.115631
25 79.115631 0.000000 -0.000119 1.459971 -2.848092 23.765963 79.115631
[pelvis]
24 169.435242 0.051022 0.000000 -0.000005 0.000003 -4.322055 169.435257
25 169.435242 0.051022 0.000000 -0.000005 0.000003 -4.322055 169.435257
[null_rope03_connect]
24 -1.257226 -2.466202 137.391083 -84.444054 59.949459 167.549866 137.418976
25 -1.257226 -2.466202 137.391083 -84.038383 58.878815 167.536392 137.418976
[null_rope04_connect]
24 -1.259640 -2.480268 -137.844437 -84.444054 59.949459 167.549866 137.872513
25 -1.259640 -2.480268 -137.844437 -84.038383 58.878815 167.536392 137.872513
[Rope3_Seg01]
24 0.000050 -0.000045 0.000117 -130.890640 -5.280828 135.578812 0.000135
25 0.000053 -0.000044 0.000122 -130.194687 -2.225321 125.182137 0.000140
[Rope3_Seg02]
24 139.999924 -0.000119 0.000060 0.697649 -1.032968 0.153626 139.999924
25 139.999924 -0.000119 0.000060 0.566131 -2.526042 -2.039186 139.999924
[Rope3_Seg03]
24 139.999924 -0.000119 0.000119 0.805877 -1.186713 0.191140 139.999924
25 139.999924 -0.000119 0.000119 0.732751 -2.897613 -2.297767 139.999924
[Rope3_Seg04]
24 139.999924 0.000119 0.000000 1.020982 -1.778731 -0.024106 139.999924
25 139.999924 0.000119 0.000000 1.125550 -4.044568 -3.225666 139.999924
[Rope3_Seg05]
24 139.999924 -0.000238 0.000060 2.667068 -4.943629 -1.871419 139.999924
25 139.999924 -0.000238 0.000060 2.793443 -6.948829 -5.612004 139.999924
[Rope3_Seg06]
24 139.999893 -0.000119 -0.000060 0.979137 0.459571 1.984031 139.999893
25 139.999893 -0.000119 -0.000060 1.037598 -0.970307 -0.264335 139.999893
[Rope3_Seg07]
24 139.999771 0.000060 -0.000119 -1.123132 9.996090 7.838554 139.999771
25 139.999771 0.000060 -0.000119 -1.094790 7.402792 6.292957 139.999771
[Rope3_Seg08]
24 139.999985 -0.000060 0.000000 -0.023325 7.831258 6.591884 139.999985
25 139.999985 -0.000060 0.000000 -0.191621 5.303182 4.811509 139.999985
[Rope3_Seg09]
24 90.185997 -0.000179 -0.000060 89.793228 -1.359877 -0.847183 90.185997
25 90.185997 -0.000179 -0.000060 89.793228 -1.359877 -0.847183 90.185997
[R_rear_hand01]
24 103.366196 -6.073594 -10.757982 -161.551193 16.666374 -30.088671 104.101845
25 103.366196 -6.073594 -10.757982 -161.551193 16.666374 -30.088671 104.101845
[R_rear_hand02]
24 100.509819 12.039542 -7.992327 -34.280552 19.289745 28.875523 101.543350
25 100.509819 12.039542 -7.992327 -34.280552 19.289745 28.875523 101.543350
[R_rear_hand03]
24 101.539970 5.215704 5.435467 83.366440 -30.933914 7.284830 101.819031
25 101.539970 5.215704 5.435467 83.366440 -30.933914 7.284830 101.819031
[Rope4_Seg01]
24 -0.000099 0.000094 0.000000 38.852798 -1.997653 122.650894 0.000137
25 -0.000107 0.000093 0.000000 47.223602 5.023851 103.848412 0.000142
[Rope4_Seg02]
24 139.999985 0.000060 0.000119 -0.146171 8.505601 4.951766 139.999985
25 139.999985 0.000060 0.000119 -3.041099 14.609032 14.502577 139.999985
[Rope4_Seg03]
24 139.999924 0.000000 -0.000238 -1.591759 5.166368 3.990720 139.999924
25 139.999924 0.000000 -0.000238 -6.078978 7.894285 9.448356 139.999924
[Rope4_Seg04]
24 139.999985 0.000000 0.000119 -3.147456 3.802159 3.887917 139.999985
25 139.999985 0.000000 0.000119 -8.073227 4.421084 7.067651 139.999985
[Rope4_Seg05]
24 139.999802 -0.000060 -0.000119 2.151262 0.209880 -1.077698 139.999802
25 139.999802 -0.000060 -0.000119 -0.725671 0.684220 0.783738 139.999802
[Rope4_Seg06]
24 139.999924 0.000000 0.000060 6.554906 -2.485788 -5.583272 139.999924
25 139.999924 0.000000 0.000060 5.655219 -0.795537 -3.618377 139.999924
[Rope4_Seg07]
24 139.999802 0.000000 0.000000 8.364491 -6.902650 -10.945633 139.999802
25 139.999802 0.000000 0.000000 9.799323 -3.260256 -8.747324 139.999802
[Rope4_Seg08]
24 139.999924 0.000000 0.000119 2.066538 -5.440748 -6.909636 139.999924
25 139.999924 0.000000 0.000119 2.873059 -2.794330 -5.226703 139.999924
[Rope4_Seg09]
24 90.185791 0.000060 0.000060 -135.617828 2.228885 0.850567 90.185791
25 90.185791 0.000060 0.000060 -135.617828 2.228885 0.850567 90.185791
[L_rear_hand01]
24 101.696655 -8.392275 -7.654577 -34.454281 -18.946800 151.655121 102.329041
25 101.696655 -8.392275 -7.654577 -34.454281 -18.946800 151.655121 102.329041
[L_rear_hand02]
24 102.726799 -1.568258 5.773216 83.407906 30.330435 172.796509 102.900848
25 102.726799 -1.568258 5.773216 83.407906 30.330435 172.796509 102.900848
[L_rear_hand03]
24 104.552910 9.721220 -10.420293 -161.379868 -16.473232 -150.512238 105.519653
25 104.552910 9.721220 -10.420293 -161.379868 -16.473232 -150.512238 105.519653
